<svg width="250" height="250" viewBox="-125 -125 250 250" role="img" aria-label="Animated bloub avatar" xmlns="http://www.w3.org/2000/svg"><defs><mask id="bot-mask-myabeo" maskUnits="userSpaceOnUse" x="-158" y="-158" width="316" height="316"><path d="M100.19 0.33C100.19 3.6 100.03 6.88 99.71 10.13C99.39 13.38 98.9 16.63 98.27 19.84C97.63 23.04 96.83 26.23 95.88 29.36C94.93 32.48 93.83 35.58 92.58 38.6C91.33 41.62 89.92 44.59 88.38 47.47C86.84 50.35 85.15 53.17 83.33 55.89C81.52 58.6 79.56 61.24 77.49 63.77C75.42 66.29 73.21 68.73 70.9 71.04C68.59 73.35 66.15 75.56 63.63 77.63C61.1 79.7 58.46 81.66 55.74 83.48C53.03 85.29 50.21 86.98 47.33 88.52C44.45 90.06 41.47 91.47 38.46 92.72C35.44 93.97 32.34 95.07 29.22 96.02C26.09 96.97 22.9 97.77 19.7 98.41C16.49 99.04 13.24 99.53 9.99 99.85C6.74 100.17 3.45 100.33 0.19 100.33C-3.08 100.33 -6.36 100.17 -9.61 99.85C-12.87 99.53 -16.12 99.04 -19.32 98.41C-22.53 97.77 -25.71 96.97 -28.84 96.02C-31.97 95.07 -35.06 93.97 -38.08 92.72C-41.1 91.47 -44.07 90.06 -46.95 88.52C-49.83 86.98 -52.65 85.29 -55.37 83.48C-58.09 81.66 -60.73 79.7 -63.25 77.63C-65.78 75.56 -68.21 73.35 -70.52 71.04C-72.83 68.73 -75.04 66.29 -77.11 63.77C-79.19 61.24 -81.14 58.6 -82.96 55.89C-84.77 53.17 -86.46 50.35 -88 47.47C-89.54 44.59 -90.95 41.62 -92.2 38.6C-93.45 35.58 -94.56 32.48 -95.51 29.36C-96.46 26.23 -97.25 23.04 -97.89 19.84C-98.53 16.63 -99.01 13.38 -99.33 10.13C-99.65 6.88 -99.81 3.6 -99.81 0.33C-99.81 -2.94 -99.65 -6.22 -99.33 -9.47C-99.01 -12.72 -98.53 -15.98 -97.89 -19.18C-97.25 -22.38 -96.46 -25.57 -95.51 -28.7C-94.56 -31.83 -93.45 -34.92 -92.2 -37.94C-90.95 -40.96 -89.54 -43.93 -88 -46.81C-86.46 -49.69 -84.77 -52.51 -82.96 -55.23C-81.14 -57.94 -79.19 -60.58 -77.11 -63.11C-75.04 -65.64 -72.83 -68.07 -70.52 -70.38C-68.21 -72.69 -65.78 -74.9 -63.25 -76.97C-60.73 -79.04 -58.09 -81 -55.37 -82.82C-52.65 -84.63 -49.83 -86.32 -46.95 -87.86C-44.07 -89.4 -41.1 -90.81 -38.08 -92.06C-35.06 -93.31 -31.97 -94.42 -28.84 -95.37C-25.71 -96.31 -22.53 -97.11 -19.32 -97.75C-16.12 -98.39 -12.87 -98.87 -9.61 -99.19C-6.36 -99.51 -3.08 -99.67 0.19 -99.67C3.45 -99.67 6.74 -99.51 9.99 -99.19C13.24 -98.87 16.49 -98.39 19.7 -97.75C22.9 -97.11 26.09 -96.31 29.22 -95.37C32.34 -94.42 35.44 -93.31 38.46 -92.06C41.47 -90.81 44.45 -89.4 47.33 -87.86C50.21 -86.32 53.03 -84.63 55.74 -82.82C58.46 -81 61.1 -79.04 63.63 -76.97C66.15 -74.9 68.59 -72.69 70.9 -70.38C73.21 -68.07 75.42 -65.64 77.49 -63.11C79.56 -60.58 81.52 -57.94 83.33 -55.23C85.15 -52.51 86.84 -49.69 88.38 -46.81C89.92 -43.93 91.33 -40.96 92.58 -37.94C93.83 -34.92 94.93 -31.83 95.88 -28.7C96.83 -25.57 97.63 -22.38 98.27 -19.18C98.9 -15.98 99.39 -12.72 99.71 -9.47C100.03 -6.22 100.19 -2.94 100.19 0.33Z" fill="#fff"/><path d="M-15 0A7.5 7.5 0 0 1 -7.5 -7.5L7.5 -7.5A7.5 7.5 0 0 1 15 0L15 0A7.5 7.5 0 0 1 7.5 7.5L-7.5 7.5A7.5 7.5 0 0 1 -15 0Z" class="oeil0" opacity="1" fill="#000"/><path d="M-15 0A7.5 7.5 0 0 1 -7.5 -7.5L7.5 -7.5A7.5 7.5 0 0 1 15 0L15 0A7.5 7.5 0 0 1 7.5 7.5L-7.5 7.5A7.5 7.5 0 0 1 -15 0Z" class="oeil1" opacity="1" fill="#000"/></mask></defs><g fill="none" stroke-linecap="round"></g><g opacity="1"><path d="M100.19 0.33C100.19 3.6 100.03 6.88 99.71 10.13C99.39 13.38 98.9 16.63 98.27 19.84C97.63 23.04 96.83 26.23 95.88 29.36C94.93 32.48 93.83 35.58 92.58 38.6C91.33 41.62 89.92 44.59 88.38 47.47C86.84 50.35 85.15 53.17 83.33 55.89C81.52 58.6 79.56 61.24 77.49 63.77C75.42 66.29 73.21 68.73 70.9 71.04C68.59 73.35 66.15 75.56 63.63 77.63C61.1 79.7 58.46 81.66 55.74 83.48C53.03 85.29 50.21 86.98 47.33 88.52C44.45 90.06 41.47 91.47 38.46 92.72C35.44 93.97 32.34 95.07 29.22 96.02C26.09 96.97 22.9 97.77 19.7 98.41C16.49 99.04 13.24 99.53 9.99 99.85C6.74 100.17 3.45 100.33 0.19 100.33C-3.08 100.33 -6.36 100.17 -9.61 99.85C-12.87 99.53 -16.12 99.04 -19.32 98.41C-22.53 97.77 -25.71 96.97 -28.84 96.02C-31.97 95.07 -35.06 93.97 -38.08 92.72C-41.1 91.47 -44.07 90.06 -46.95 88.52C-49.83 86.98 -52.65 85.29 -55.37 83.48C-58.09 81.66 -60.73 79.7 -63.25 77.63C-65.78 75.56 -68.21 73.35 -70.52 71.04C-72.83 68.73 -75.04 66.29 -77.11 63.77C-79.19 61.24 -81.14 58.6 -82.96 55.89C-84.77 53.17 -86.46 50.35 -88 47.47C-89.54 44.59 -90.95 41.62 -92.2 38.6C-93.45 35.58 -94.56 32.48 -95.51 29.36C-96.46 26.23 -97.25 23.04 -97.89 19.84C-98.53 16.63 -99.01 13.38 -99.33 10.13C-99.65 6.88 -99.81 3.6 -99.81 0.33C-99.81 -2.94 -99.65 -6.22 -99.33 -9.47C-99.01 -12.72 -98.53 -15.98 -97.89 -19.18C-97.25 -22.38 -96.46 -25.57 -95.51 -28.7C-94.56 -31.83 -93.45 -34.92 -92.2 -37.94C-90.95 -40.96 -89.54 -43.93 -88 -46.81C-86.46 -49.69 -84.77 -52.51 -82.96 -55.23C-81.14 -57.94 -79.19 -60.58 -77.11 -63.11C-75.04 -65.64 -72.83 -68.07 -70.52 -70.38C-68.21 -72.69 -65.78 -74.9 -63.25 -76.97C-60.73 -79.04 -58.09 -81 -55.37 -82.82C-52.65 -84.63 -49.83 -86.32 -46.95 -87.86C-44.07 -89.4 -41.1 -90.81 -38.08 -92.06C-35.06 -93.31 -31.97 -94.42 -28.84 -95.37C-25.71 -96.31 -22.53 -97.11 -19.32 -97.75C-16.12 -98.39 -12.87 -98.87 -9.61 -99.19C-6.36 -99.51 -3.08 -99.67 0.19 -99.67C3.45 -99.67 6.74 -99.51 9.99 -99.19C13.24 -98.87 16.49 -98.39 19.7 -97.75C22.9 -97.11 26.09 -96.31 29.22 -95.37C32.34 -94.42 35.44 -93.31 38.46 -92.06C41.47 -90.81 44.45 -89.4 47.33 -87.86C50.21 -86.32 53.03 -84.63 55.74 -82.82C58.46 -81 61.1 -79.04 63.63 -76.97C66.15 -74.9 68.59 -72.69 70.9 -70.38C73.21 -68.07 75.42 -65.64 77.49 -63.11C79.56 -60.58 81.52 -57.94 83.33 -55.23C85.15 -52.51 86.84 -49.69 88.38 -46.81C89.92 -43.93 91.33 -40.96 92.58 -37.94C93.83 -34.92 94.93 -31.83 95.88 -28.7C96.83 -25.57 97.63 -22.38 98.27 -19.18C98.9 -15.98 99.39 -12.72 99.71 -9.47C100.03 -6.22 100.19 -2.94 100.19 0.33Z" fill="#f9f9f9"/><g mask="url(#bot-mask-myabeo)"><rect x="-158" y="-158" width="316" height="316" fill="#e152b0"/></g></g><g></g><g fill="none" stroke-linecap="round"></g><style>.oeil0,.oeil1{transform-box:view-box;transform-origin:0 0;animation-duration:2.967s;animation-iteration-count:infinite;animation-timing-function:linear;animation-direction:alternate}.oeil0{animation-name:oeil0}.oeil1{animation-name:oeil1}@keyframes oeil0{0%{transform:matrix(0.95,0.2,-0.26,0.93,-15.99,-31)}1.124%{transform:matrix(0.95,0.2,-0.26,0.93,-16.01,-30.95)}2.247%{transform:matrix(0.95,0.2,-0.26,0.93,-16.04,-30.89)}3.371%{transform:matrix(0.95,0.2,-0.26,0.93,-16.07,-30.84)}4.494%{transform:matrix(0.95,0.2,-0.26,0.93,-16.11,-30.8)}5.618%{transform:matrix(0.95,0.2,-0.26,0.93,-16.16,-30.76)}6.742%{transform:matrix(0.95,0.2,-0.26,0.93,-16.21,-30.72)}7.865%{transform:matrix(0.95,0.2,-0.26,0.93,-16.28,-30.69)}8.989%{transform:matrix(0.95,0.2,-0.26,0.93,-16.35,-30.67)}10.112%{transform:matrix(0.95,0.2,-0.26,0.93,-16.43,-30.65)}11.236%{transform:matrix(0.95,0.2,-0.26,0.93,-16.51,-30.64)}12.36%{transform:matrix(0.95,0.2,-0.26,0.93,-16.6,-30.63)}13.483%{transform:matrix(0.95,0.2,-0.26,0.93,-16.7,-30.63)}14.607%{transform:matrix(0.95,0.2,-0.26,0.93,-16.79,-30.62)}15.73%{transform:matrix(0.95,0.2,-0.26,0.93,-16.89,-30.63)}16.854%{transform:matrix(0.95,0.2,-0.26,0.93,-16.98,-30.63)}17.978%{transform:matrix(0.95,0.2,-0.26,0.93,-17.07,-30.63)}19.101%{transform:matrix(0.95,0.2,-0.26,0.93,-17.16,-30.64)}20.225%{transform:matrix(0.95,0.2,-0.26,0.93,-17.25,-30.64)}21.348%{transform:matrix(0.95,0.2,-0.26,0.93,-17.33,-30.65)}22.472%{transform:matrix(0.95,0.2,-0.26,0.93,-17.41,-30.65)}23.596%{transform:matrix(0.95,0.2,-0.26,0.93,-17.48,-30.65)}24.719%{transform:matrix(0.95,0.2,-0.26,0.93,-17.55,-30.65)}25.843%{transform:matrix(0.95,0.2,-0.26,0.93,-17.61,-30.65)}26.966%{transform:matrix(0.95,0.2,-0.26,0.93,-17.67,-30.64)}28.09%{transform:matrix(0.95,0.2,-0.26,0.93,-17.72,-30.62)}29.213%{transform:matrix(0.95,0.2,-0.26,0.93,-17.77,-30.6)}30.337%{transform:matrix(0.95,0.2,-0.26,0.93,-17.81,-30.58)}31.461%{transform:matrix(0.95,0.2,-0.26,0.93,-17.86,-30.55)}32.584%{transform:matrix(0.95,0.2,-0.26,0.93,-17.9,-30.52)}33.708%{transform:matrix(0.95,0.2,-0.26,0.93,-17.95,-30.48)}34.831%{transform:matrix(0.95,0.2,-0.26,0.93,-17.99,-30.44)}35.955%{transform:matrix(0.95,0.2,-0.26,0.93,-18.05,-30.39)}37.079%{transform:matrix(0.95,0.2,-0.26,0.93,-18.1,-30.34)}38.202%{transform:matrix(0.95,0.2,-0.26,0.93,-18.17,-30.29)}39.326%{transform:matrix(0.95,0.2,-0.26,0.93,-18.24,-30.24)}40.449%{transform:matrix(0.95,0.2,-0.26,0.93,-18.31,-30.18)}41.573%{transform:matrix(0.95,0.2,-0.26,0.93,-18.4,-30.12)}42.697%{transform:matrix(0.95,0.2,-0.26,0.93,-18.49,-30.06)}43.82%{transform:matrix(0.95,0.2,-0.26,0.93,-18.6,-30)}44.944%{transform:matrix(0.95,0.2,-0.26,0.93,-18.71,-29.94)}46.067%{transform:matrix(0.95,0.2,-0.26,0.93,-18.83,-29.88)}47.191%{transform:matrix(0.95,0.2,-0.26,0.93,-18.95,-29.82)}48.315%{transform:matrix(0.95,0.12,-0.26,0.57,-19.08,-29.76)}49.438%{transform:matrix(0.95,0.05,-0.26,0.21,-19.22,-29.7)}50.562%{transform:matrix(0.94,0.05,-0.26,0.22,-19.35,-29.65)}51.685%{transform:matrix(0.94,0.11,-0.26,0.52,-19.48,-29.6)}52.809%{transform:matrix(0.94,0.18,-0.27,0.82,-19.61,-29.55)}53.933%{transform:matrix(0.94,0.2,-0.27,0.93,-19.73,-29.5)}55.056%{transform:matrix(0.94,0.2,-0.27,0.93,-19.85,-29.45)}56.18%{transform:matrix(0.94,0.2,-0.27,0.93,-19.95,-29.4)}57.303%{transform:matrix(0.94,0.2,-0.27,0.93,-20.04,-29.36)}58.427%{transform:matrix(0.94,0.2,-0.27,0.93,-20.12,-29.31)}59.551%{transform:matrix(0.94,0.2,-0.27,0.93,-20.17,-29.27)}60.674%{transform:matrix(0.94,0.2,-0.27,0.93,-20.21,-29.22)}61.798%{transform:matrix(0.94,0.2,-0.27,0.93,-20.22,-29.17)}62.921%{transform:matrix(0.94,0.2,-0.27,0.93,-20.21,-29.12)}64.045%{transform:matrix(0.94,0.2,-0.27,0.93,-20.18,-29.06)}65.169%{transform:matrix(0.94,0.2,-0.27,0.94,-20.12,-29)}66.292%{transform:matrix(0.94,0.2,-0.27,0.94,-20.04,-28.94)}67.416%{transform:matrix(0.94,0.2,-0.27,0.94,-19.93,-28.87)}68.539%{transform:matrix(0.94,0.2,-0.27,0.94,-19.8,-28.79)}69.663%{transform:matrix(0.94,0.2,-0.27,0.94,-19.65,-28.71)}70.787%{transform:matrix(0.94,0.2,-0.26,0.94,-19.48,-28.62)}71.91%{transform:matrix(0.94,0.2,-0.26,0.94,-19.29,-28.52)}73.034%{transform:matrix(0.95,0.2,-0.26,0.94,-19.08,-28.42)}74.157%{transform:matrix(0.95,0.2,-0.26,0.94,-18.86,-28.31)}75.281%{transform:matrix(0.95,0.2,-0.26,0.94,-18.64,-28.19)}76.404%{transform:matrix(0.95,0.2,-0.26,0.94,-18.4,-28.07)}77.528%{transform:matrix(0.95,0.21,-0.26,0.94,-18.16,-27.93)}78.652%{transform:matrix(0.95,0.21,-0.26,0.94,-17.92,-27.8)}79.775%{transform:matrix(0.95,0.21,-0.26,0.94,-17.69,-27.66)}80.899%{transform:matrix(0.95,0.21,-0.26,0.94,-17.46,-27.51)}82.022%{transform:matrix(0.95,0.21,-0.26,0.94,-17.24,-27.36)}83.146%{transform:matrix(0.95,0.21,-0.26,0.94,-17.04,-27.21)}84.27%{transform:matrix(0.95,0.21,-0.26,0.94,-16.85,-27.06)}85.393%{transform:matrix(0.95,0.21,-0.26,0.94,-16.68,-26.91)}86.517%{transform:matrix(0.95,0.21,-0.26,0.94,-16.53,-26.76)}87.64%{transform:matrix(0.95,0.21,-0.26,0.94,-16.4,-26.62)}88.764%{transform:matrix(0.95,0.21,-0.26,0.94,-16.29,-26.49)}89.888%{transform:matrix(0.95,0.21,-0.26,0.94,-16.21,-26.36)}91.011%{transform:matrix(0.95,0.21,-0.26,0.94,-16.16,-26.24)}92.135%{transform:matrix(0.95,0.21,-0.26,0.94,-16.12,-26.13)}93.258%{transform:matrix(0.95,0.21,-0.26,0.94,-16.12,-26.03)}94.382%{transform:matrix(0.95,0.21,-0.26,0.94,-16.13,-25.95)}95.506%{transform:matrix(0.95,0.21,-0.26,0.94,-16.17,-25.88)}96.629%{transform:matrix(0.95,0.21,-0.26,0.94,-16.22,-25.83)}97.753%{transform:matrix(0.95,0.21,-0.26,0.94,-16.29,-25.79)}98.876%{transform:matrix(0.95,0.21,-0.26,0.94,-16.38,-25.77)}100%{transform:matrix(0.95,0.21,-0.26,0.94,-16.49,-25.76)}}@keyframes oeil1{0%{transform:matrix(0.85,-0.2,0.32,0.93,41.89,-31.01)}1.124%{transform:matrix(0.85,-0.2,0.32,0.93,41.88,-30.97)}2.247%{transform:matrix(0.85,-0.2,0.32,0.93,41.86,-30.93)}3.371%{transform:matrix(0.85,-0.2,0.32,0.93,41.83,-30.89)}4.494%{transform:matrix(0.85,-0.2,0.33,0.93,41.79,-30.86)}5.618%{transform:matrix(0.85,-0.2,0.33,0.93,41.74,-30.83)}6.742%{transform:matrix(0.85,-0.2,0.33,0.93,41.69,-30.81)}7.865%{transform:matrix(0.85,-0.2,0.33,0.93,41.63,-30.79)}8.989%{transform:matrix(0.85,-0.2,0.33,0.93,41.56,-30.78)}10.112%{transform:matrix(0.85,-0.2,0.33,0.93,41.49,-30.77)}11.236%{transform:matrix(0.85,-0.2,0.33,0.93,41.41,-30.77)}12.36%{transform:matrix(0.85,-0.2,0.33,0.93,41.33,-30.77)}13.483%{transform:matrix(0.85,-0.2,0.33,0.93,41.25,-30.78)}14.607%{transform:matrix(0.85,-0.2,0.33,0.93,41.16,-30.79)}15.73%{transform:matrix(0.85,-0.2,0.33,0.93,41.07,-30.8)}16.854%{transform:matrix(0.85,-0.21,0.33,0.93,40.98,-30.81)}17.978%{transform:matrix(0.85,-0.21,0.33,0.93,40.9,-30.83)}19.101%{transform:matrix(0.85,-0.21,0.33,0.93,40.81,-30.84)}20.225%{transform:matrix(0.85,-0.21,0.33,0.93,40.73,-30.86)}21.348%{transform:matrix(0.85,-0.21,0.33,0.93,40.66,-30.87)}22.472%{transform:matrix(0.85,-0.21,0.33,0.93,40.58,-30.88)}23.596%{transform:matrix(0.86,-0.21,0.33,0.93,40.52,-30.89)}24.719%{transform:matrix(0.86,-0.21,0.33,0.93,40.46,-30.9)}25.843%{transform:matrix(0.86,-0.21,0.33,0.93,40.4,-30.9)}26.966%{transform:matrix(0.86,-0.21,0.33,0.93,40.35,-30.9)}28.09%{transform:matrix(0.86,-0.21,0.33,0.93,40.3,-30.89)}29.213%{transform:matrix(0.86,-0.21,0.33,0.93,40.25,-30.88)}30.337%{transform:matrix(0.86,-0.21,0.33,0.93,40.21,-30.87)}31.461%{transform:matrix(0.86,-0.21,0.33,0.93,40.17,-30.84)}32.584%{transform:matrix(0.86,-0.21,0.33,0.93,40.13,-30.82)}33.708%{transform:matrix(0.86,-0.21,0.33,0.93,40.08,-30.79)}34.831%{transform:matrix(0.86,-0.21,0.33,0.93,40.04,-30.75)}35.955%{transform:matrix(0.86,-0.21,0.33,0.93,39.99,-30.71)}37.079%{transform:matrix(0.86,-0.21,0.33,0.93,39.94,-30.67)}38.202%{transform:matrix(0.86,-0.21,0.33,0.93,39.88,-30.62)}39.326%{transform:matrix(0.86,-0.21,0.32,0.93,39.81,-30.57)}40.449%{transform:matrix(0.86,-0.21,0.32,0.93,39.74,-30.52)}41.573%{transform:matrix(0.86,-0.21,0.32,0.93,39.66,-30.46)}42.697%{transform:matrix(0.86,-0.21,0.32,0.93,39.57,-30.4)}43.82%{transform:matrix(0.86,-0.21,0.32,0.93,39.48,-30.35)}44.944%{transform:matrix(0.86,-0.21,0.32,0.93,39.37,-30.29)}46.067%{transform:matrix(0.86,-0.21,0.32,0.93,39.26,-30.24)}47.191%{transform:matrix(0.86,-0.21,0.32,0.93,39.15,-30.18)}48.315%{transform:matrix(0.86,-0.13,0.32,0.57,39.03,-30.13)}49.438%{transform:matrix(0.86,-0.05,0.32,0.21,38.9,-30.07)}50.562%{transform:matrix(0.86,-0.05,0.32,0.22,38.78,-30.02)}51.685%{transform:matrix(0.86,-0.12,0.32,0.52,38.65,-29.97)}52.809%{transform:matrix(0.86,-0.19,0.32,0.81,38.53,-29.93)}53.933%{transform:matrix(0.87,-0.21,0.32,0.93,38.42,-29.88)}55.056%{transform:matrix(0.87,-0.21,0.32,0.93,38.31,-29.84)}56.18%{transform:matrix(0.87,-0.21,0.32,0.93,38.21,-29.8)}57.303%{transform:matrix(0.87,-0.21,0.32,0.93,38.13,-29.75)}58.427%{transform:matrix(0.87,-0.21,0.32,0.93,38.06,-29.71)}59.551%{transform:matrix(0.87,-0.21,0.32,0.93,38.01,-29.67)}60.674%{transform:matrix(0.87,-0.21,0.32,0.93,37.97,-29.63)}61.798%{transform:matrix(0.87,-0.21,0.32,0.93,37.96,-29.58)}62.921%{transform:matrix(0.87,-0.21,0.32,0.93,37.97,-29.53)}64.045%{transform:matrix(0.87,-0.22,0.32,0.93,38,-29.48)}65.169%{transform:matrix(0.87,-0.22,0.32,0.93,38.05,-29.43)}66.292%{transform:matrix(0.87,-0.22,0.32,0.93,38.13,-29.37)}67.416%{transform:matrix(0.87,-0.22,0.32,0.93,38.23,-29.3)}68.539%{transform:matrix(0.87,-0.22,0.32,0.93,38.35,-29.23)}69.663%{transform:matrix(0.86,-0.22,0.32,0.93,38.49,-29.16)}70.787%{transform:matrix(0.86,-0.22,0.32,0.93,38.65,-29.07)}71.91%{transform:matrix(0.86,-0.22,0.32,0.93,38.83,-28.98)}73.034%{transform:matrix(0.86,-0.22,0.32,0.93,39.02,-28.89)}74.157%{transform:matrix(0.86,-0.22,0.32,0.93,39.22,-28.78)}75.281%{transform:matrix(0.86,-0.22,0.32,0.93,39.44,-28.67)}76.404%{transform:matrix(0.86,-0.22,0.32,0.93,39.65,-28.55)}77.528%{transform:matrix(0.86,-0.22,0.32,0.93,39.88,-28.43)}78.652%{transform:matrix(0.86,-0.22,0.33,0.93,40.1,-28.3)}79.775%{transform:matrix(0.86,-0.22,0.33,0.93,40.31,-28.17)}80.899%{transform:matrix(0.85,-0.22,0.33,0.93,40.52,-28.03)}82.022%{transform:matrix(0.85,-0.22,0.33,0.93,40.72,-27.89)}83.146%{transform:matrix(0.85,-0.22,0.33,0.93,40.91,-27.75)}84.27%{transform:matrix(0.85,-0.22,0.33,0.93,41.09,-27.61)}85.393%{transform:matrix(0.85,-0.23,0.33,0.93,41.24,-27.48)}86.517%{transform:matrix(0.85,-0.23,0.33,0.93,41.38,-27.34)}87.64%{transform:matrix(0.85,-0.23,0.33,0.93,41.49,-27.21)}88.764%{transform:matrix(0.85,-0.23,0.33,0.94,41.59,-27.09)}89.888%{transform:matrix(0.85,-0.23,0.33,0.94,41.66,-26.97)}91.011%{transform:matrix(0.85,-0.23,0.33,0.94,41.71,-26.87)}92.135%{transform:matrix(0.85,-0.23,0.33,0.94,41.74,-26.77)}93.258%{transform:matrix(0.85,-0.23,0.33,0.94,41.75,-26.69)}94.382%{transform:matrix(0.85,-0.23,0.33,0.94,41.73,-26.62)}95.506%{transform:matrix(0.85,-0.23,0.33,0.94,41.7,-26.57)}96.629%{transform:matrix(0.85,-0.23,0.33,0.94,41.65,-26.53)}97.753%{transform:matrix(0.85,-0.23,0.33,0.94,41.58,-26.51)}98.876%{transform:matrix(0.85,-0.23,0.33,0.94,41.5,-26.51)}100%{transform:matrix(0.85,-0.23,0.33,0.94,41.4,-26.52)}}</style></svg>