<svg width="250" height="250" viewBox="-125 -125 250 250" role="img" aria-label="Animated bloub avatar" xmlns="http://www.w3.org/2000/svg"><defs><mask id="bot-mask-g9tq5r" maskUnits="userSpaceOnUse" x="-158" y="-158" width="316" height="316"><path d="M100.19 0.33C100.19 3.6 100.03 6.88 99.71 10.13C99.39 13.38 98.9 16.63 98.27 19.84C97.63 23.04 96.83 26.23 95.88 29.36C94.93 32.48 93.83 35.58 92.58 38.6C91.33 41.62 89.92 44.59 88.38 47.47C86.84 50.35 85.15 53.17 83.33 55.89C81.52 58.6 79.56 61.24 77.49 63.77C75.42 66.29 73.21 68.73 70.9 71.04C68.59 73.35 66.15 75.56 63.63 77.63C61.1 79.7 58.46 81.66 55.74 83.48C53.03 85.29 50.21 86.98 47.33 88.52C44.45 90.06 41.47 91.47 38.46 92.72C35.44 93.97 32.34 95.07 29.22 96.02C26.09 96.97 22.9 97.77 19.7 98.41C16.49 99.04 13.24 99.53 9.99 99.85C6.74 100.17 3.45 100.33 0.19 100.33C-3.08 100.33 -6.36 100.17 -9.61 99.85C-12.87 99.53 -16.12 99.04 -19.32 98.41C-22.53 97.77 -25.71 96.97 -28.84 96.02C-31.97 95.07 -35.06 93.97 -38.08 92.72C-41.1 91.47 -44.07 90.06 -46.95 88.52C-49.83 86.98 -52.65 85.29 -55.37 83.48C-58.09 81.66 -60.73 79.7 -63.25 77.63C-65.78 75.56 -68.21 73.35 -70.52 71.04C-72.83 68.73 -75.04 66.29 -77.11 63.77C-79.19 61.24 -81.14 58.6 -82.96 55.89C-84.77 53.17 -86.46 50.35 -88 47.47C-89.54 44.59 -90.95 41.62 -92.2 38.6C-93.45 35.58 -94.56 32.48 -95.51 29.36C-96.46 26.23 -97.25 23.04 -97.89 19.84C-98.53 16.63 -99.01 13.38 -99.33 10.13C-99.65 6.88 -99.81 3.6 -99.81 0.33C-99.81 -2.94 -99.65 -6.22 -99.33 -9.47C-99.01 -12.72 -98.53 -15.98 -97.89 -19.18C-97.25 -22.38 -96.46 -25.57 -95.51 -28.7C-94.56 -31.83 -93.45 -34.92 -92.2 -37.94C-90.95 -40.96 -89.54 -43.93 -88 -46.81C-86.46 -49.69 -84.77 -52.51 -82.96 -55.23C-81.14 -57.94 -79.19 -60.58 -77.11 -63.11C-75.04 -65.64 -72.83 -68.07 -70.52 -70.38C-68.21 -72.69 -65.78 -74.9 -63.25 -76.97C-60.73 -79.04 -58.09 -81 -55.37 -82.82C-52.65 -84.63 -49.83 -86.32 -46.95 -87.86C-44.07 -89.4 -41.1 -90.81 -38.08 -92.06C-35.06 -93.31 -31.97 -94.42 -28.84 -95.37C-25.71 -96.31 -22.53 -97.11 -19.32 -97.75C-16.12 -98.39 -12.87 -98.87 -9.61 -99.19C-6.36 -99.51 -3.08 -99.67 0.19 -99.67C3.45 -99.67 6.74 -99.51 9.99 -99.19C13.24 -98.87 16.49 -98.39 19.7 -97.75C22.9 -97.11 26.09 -96.31 29.22 -95.37C32.34 -94.42 35.44 -93.31 38.46 -92.06C41.47 -90.81 44.45 -89.4 47.33 -87.86C50.21 -86.32 53.03 -84.63 55.74 -82.82C58.46 -81 61.1 -79.04 63.63 -76.97C66.15 -74.9 68.59 -72.69 70.9 -70.38C73.21 -68.07 75.42 -65.64 77.49 -63.11C79.56 -60.58 81.52 -57.94 83.33 -55.23C85.15 -52.51 86.84 -49.69 88.38 -46.81C89.92 -43.93 91.33 -40.96 92.58 -37.94C93.83 -34.92 94.93 -31.83 95.88 -28.7C96.83 -25.57 97.63 -22.38 98.27 -19.18C98.9 -15.98 99.39 -12.72 99.71 -9.47C100.03 -6.22 100.19 -2.94 100.19 0.33Z" fill="#fff"/><path d="M-10.5 -9.5A10.5 10.5 0 0 1 0 -20L0 -20A10.5 10.5 0 0 1 10.5 -9.5L10.5 9.5A10.5 10.5 0 0 1 0 20L0 20A10.5 10.5 0 0 1 -10.5 9.5Z" class="oeil0" opacity="1" fill="#000"/><path d="M-11 0A7.5 7.5 0 0 1 -3.5 -7.5L3.5 -7.5A7.5 7.5 0 0 1 11 0L11 0A7.5 7.5 0 0 1 3.5 7.5L-3.5 7.5A7.5 7.5 0 0 1 -11 0Z" class="oeil1" opacity="1" fill="#000"/></mask></defs><g fill="none" stroke-linecap="round"></g><g opacity="1"><path d="M100.19 0.33C100.19 3.6 100.03 6.88 99.71 10.13C99.39 13.38 98.9 16.63 98.27 19.84C97.63 23.04 96.83 26.23 95.88 29.36C94.93 32.48 93.83 35.58 92.58 38.6C91.33 41.62 89.92 44.59 88.38 47.47C86.84 50.35 85.15 53.17 83.33 55.89C81.52 58.6 79.56 61.24 77.49 63.77C75.42 66.29 73.21 68.73 70.9 71.04C68.59 73.35 66.15 75.56 63.63 77.63C61.1 79.7 58.46 81.66 55.74 83.48C53.03 85.29 50.21 86.98 47.33 88.52C44.45 90.06 41.47 91.47 38.46 92.72C35.44 93.97 32.34 95.07 29.22 96.02C26.09 96.97 22.9 97.77 19.7 98.41C16.49 99.04 13.24 99.53 9.99 99.85C6.74 100.17 3.45 100.33 0.19 100.33C-3.08 100.33 -6.36 100.17 -9.61 99.85C-12.87 99.53 -16.12 99.04 -19.32 98.41C-22.53 97.77 -25.71 96.97 -28.84 96.02C-31.97 95.07 -35.06 93.97 -38.08 92.72C-41.1 91.47 -44.07 90.06 -46.95 88.52C-49.83 86.98 -52.65 85.29 -55.37 83.48C-58.09 81.66 -60.73 79.7 -63.25 77.63C-65.78 75.56 -68.21 73.35 -70.52 71.04C-72.83 68.73 -75.04 66.29 -77.11 63.77C-79.19 61.24 -81.14 58.6 -82.96 55.89C-84.77 53.17 -86.46 50.35 -88 47.47C-89.54 44.59 -90.95 41.62 -92.2 38.6C-93.45 35.58 -94.56 32.48 -95.51 29.36C-96.46 26.23 -97.25 23.04 -97.89 19.84C-98.53 16.63 -99.01 13.38 -99.33 10.13C-99.65 6.88 -99.81 3.6 -99.81 0.33C-99.81 -2.94 -99.65 -6.22 -99.33 -9.47C-99.01 -12.72 -98.53 -15.98 -97.89 -19.18C-97.25 -22.38 -96.46 -25.57 -95.51 -28.7C-94.56 -31.83 -93.45 -34.92 -92.2 -37.94C-90.95 -40.96 -89.54 -43.93 -88 -46.81C-86.46 -49.69 -84.77 -52.51 -82.96 -55.23C-81.14 -57.94 -79.19 -60.58 -77.11 -63.11C-75.04 -65.64 -72.83 -68.07 -70.52 -70.38C-68.21 -72.69 -65.78 -74.9 -63.25 -76.97C-60.73 -79.04 -58.09 -81 -55.37 -82.82C-52.65 -84.63 -49.83 -86.32 -46.95 -87.86C-44.07 -89.4 -41.1 -90.81 -38.08 -92.06C-35.06 -93.31 -31.97 -94.42 -28.84 -95.37C-25.71 -96.31 -22.53 -97.11 -19.32 -97.75C-16.12 -98.39 -12.87 -98.87 -9.61 -99.19C-6.36 -99.51 -3.08 -99.67 0.19 -99.67C3.45 -99.67 6.74 -99.51 9.99 -99.19C13.24 -98.87 16.49 -98.39 19.7 -97.75C22.9 -97.11 26.09 -96.31 29.22 -95.37C32.34 -94.42 35.44 -93.31 38.46 -92.06C41.47 -90.81 44.45 -89.4 47.33 -87.86C50.21 -86.32 53.03 -84.63 55.74 -82.82C58.46 -81 61.1 -79.04 63.63 -76.97C66.15 -74.9 68.59 -72.69 70.9 -70.38C73.21 -68.07 75.42 -65.64 77.49 -63.11C79.56 -60.58 81.52 -57.94 83.33 -55.23C85.15 -52.51 86.84 -49.69 88.38 -46.81C89.92 -43.93 91.33 -40.96 92.58 -37.94C93.83 -34.92 94.93 -31.83 95.88 -28.7C96.83 -25.57 97.63 -22.38 98.27 -19.18C98.9 -15.98 99.39 -12.72 99.71 -9.47C100.03 -6.22 100.19 -2.94 100.19 0.33Z" fill="#f9f9f9"/><g mask="url(#bot-mask-g9tq5r)"><rect x="-158" y="-158" width="316" height="316" fill="#e152b0"/></g></g><g></g><g fill="none" stroke-linecap="round"></g><style>.oeil0,.oeil1{transform-box:view-box;transform-origin:0 0;animation-duration:2.967s;animation-iteration-count:infinite;animation-timing-function:linear;animation-direction:alternate}.oeil0{animation-name:oeil0}.oeil1{animation-name:oeil1}@keyframes oeil0{0%{transform:matrix(0.99,-0.14,0.14,0.98,-1.35,-10.41)}1.124%{transform:matrix(0.99,-0.14,0.14,0.98,-1.37,-10.35)}2.247%{transform:matrix(0.99,-0.14,0.14,0.98,-1.39,-10.29)}3.371%{transform:matrix(0.99,-0.14,0.14,0.98,-1.43,-10.24)}4.494%{transform:matrix(0.99,-0.14,0.14,0.98,-1.47,-10.19)}5.618%{transform:matrix(0.99,-0.14,0.14,0.98,-1.52,-10.15)}6.742%{transform:matrix(0.99,-0.14,0.14,0.98,-1.58,-10.11)}7.865%{transform:matrix(0.99,-0.14,0.14,0.98,-1.65,-10.08)}8.989%{transform:matrix(0.99,-0.14,0.14,0.98,-1.73,-10.06)}10.112%{transform:matrix(0.99,-0.14,0.14,0.98,-1.81,-10.04)}11.236%{transform:matrix(0.99,-0.14,0.14,0.98,-1.9,-10.02)}12.36%{transform:matrix(0.99,-0.14,0.14,0.98,-2,-10.01)}13.483%{transform:matrix(0.99,-0.14,0.14,0.98,-2.09,-10.01)}14.607%{transform:matrix(0.99,-0.14,0.14,0.98,-2.19,-10.01)}15.73%{transform:matrix(0.99,-0.14,0.14,0.98,-2.29,-10.01)}16.854%{transform:matrix(0.99,-0.14,0.14,0.98,-2.39,-10.01)}17.978%{transform:matrix(0.99,-0.14,0.14,0.98,-2.49,-10.02)}19.101%{transform:matrix(0.99,-0.14,0.14,0.98,-2.59,-10.02)}20.225%{transform:matrix(0.99,-0.14,0.14,0.98,-2.68,-10.03)}21.348%{transform:matrix(0.99,-0.14,0.14,0.98,-2.77,-10.04)}22.472%{transform:matrix(0.99,-0.14,0.14,0.98,-2.85,-10.04)}23.596%{transform:matrix(0.99,-0.14,0.14,0.98,-2.92,-10.04)}24.719%{transform:matrix(0.99,-0.14,0.14,0.98,-2.99,-10.04)}25.843%{transform:matrix(0.99,-0.14,0.14,0.98,-3.06,-10.03)}26.966%{transform:matrix(0.99,-0.14,0.14,0.98,-3.12,-10.02)}28.09%{transform:matrix(0.99,-0.14,0.14,0.98,-3.17,-10.01)}29.213%{transform:matrix(0.99,-0.14,0.14,0.98,-3.22,-9.99)}30.337%{transform:matrix(0.99,-0.14,0.14,0.98,-3.27,-9.96)}31.461%{transform:matrix(0.99,-0.14,0.14,0.98,-3.32,-9.94)}32.584%{transform:matrix(0.99,-0.14,0.14,0.98,-3.37,-9.9)}33.708%{transform:matrix(0.99,-0.14,0.14,0.98,-3.41,-9.86)}34.831%{transform:matrix(0.99,-0.14,0.14,0.98,-3.46,-9.82)}35.955%{transform:matrix(0.99,-0.14,0.14,0.98,-3.52,-9.77)}37.079%{transform:matrix(0.99,-0.14,0.14,0.98,-3.58,-9.72)}38.202%{transform:matrix(0.99,-0.14,0.14,0.98,-3.65,-9.66)}39.326%{transform:matrix(0.99,-0.14,0.14,0.98,-3.72,-9.6)}40.449%{transform:matrix(0.99,-0.14,0.14,0.98,-3.8,-9.54)}41.573%{transform:matrix(0.99,-0.14,0.14,0.99,-3.9,-9.48)}42.697%{transform:matrix(0.99,-0.14,0.14,0.99,-4,-9.42)}43.82%{transform:matrix(0.99,-0.14,0.14,0.99,-4.11,-9.35)}44.944%{transform:matrix(0.99,-0.14,0.14,0.99,-4.23,-9.29)}46.067%{transform:matrix(0.99,-0.14,0.14,0.99,-4.35,-9.23)}47.191%{transform:matrix(0.99,-0.14,0.14,0.99,-4.49,-9.16)}48.315%{transform:matrix(0.99,-0.09,0.14,0.6,-4.63,-9.1)}49.438%{transform:matrix(0.99,-0.03,0.14,0.22,-4.77,-9.04)}50.562%{transform:matrix(0.99,-0.03,0.14,0.24,-4.91,-8.99)}51.685%{transform:matrix(0.99,-0.08,0.14,0.55,-5.05,-8.93)}52.809%{transform:matrix(0.99,-0.12,0.14,0.86,-5.19,-8.88)}53.933%{transform:matrix(0.99,-0.14,0.14,0.99,-5.32,-8.82)}55.056%{transform:matrix(0.99,-0.14,0.14,0.99,-5.44,-8.77)}56.18%{transform:matrix(0.99,-0.14,0.14,0.99,-5.55,-8.72)}57.303%{transform:matrix(0.99,-0.14,0.14,0.99,-5.65,-8.68)}58.427%{transform:matrix(0.99,-0.14,0.14,0.99,-5.73,-8.63)}59.551%{transform:matrix(0.99,-0.14,0.14,0.99,-5.79,-8.58)}60.674%{transform:matrix(0.99,-0.14,0.14,0.99,-5.83,-8.53)}61.798%{transform:matrix(0.99,-0.14,0.14,0.99,-5.84,-8.48)}62.921%{transform:matrix(0.99,-0.14,0.14,0.99,-5.83,-8.42)}64.045%{transform:matrix(0.99,-0.14,0.14,0.99,-5.8,-8.36)}65.169%{transform:matrix(0.99,-0.14,0.14,0.99,-5.74,-8.3)}66.292%{transform:matrix(0.99,-0.14,0.14,0.99,-5.65,-8.23)}67.416%{transform:matrix(0.99,-0.14,0.14,0.99,-5.54,-8.16)}68.539%{transform:matrix(0.99,-0.14,0.14,0.99,-5.4,-8.08)}69.663%{transform:matrix(0.99,-0.14,0.14,0.99,-5.24,-7.99)}70.787%{transform:matrix(0.99,-0.14,0.14,0.99,-5.06,-7.9)}71.91%{transform:matrix(0.99,-0.14,0.14,0.99,-4.86,-7.8)}73.034%{transform:matrix(0.99,-0.14,0.14,0.99,-4.64,-7.69)}74.157%{transform:matrix(0.99,-0.14,0.14,0.99,-4.41,-7.57)}75.281%{transform:matrix(0.99,-0.14,0.14,0.99,-4.17,-7.45)}76.404%{transform:matrix(0.99,-0.14,0.14,0.99,-3.92,-7.32)}77.528%{transform:matrix(0.99,-0.14,0.14,0.99,-3.67,-7.18)}78.652%{transform:matrix(0.99,-0.14,0.14,0.99,-3.42,-7.04)}79.775%{transform:matrix(0.99,-0.14,0.14,0.99,-3.18,-6.89)}80.899%{transform:matrix(0.99,-0.14,0.14,0.99,-2.94,-6.73)}82.022%{transform:matrix(0.99,-0.14,0.14,0.99,-2.71,-6.58)}83.146%{transform:matrix(0.99,-0.14,0.14,0.99,-2.5,-6.42)}84.27%{transform:matrix(0.99,-0.14,0.14,0.99,-2.3,-6.26)}85.393%{transform:matrix(0.99,-0.14,0.14,0.99,-2.12,-6.11)}86.517%{transform:matrix(0.99,-0.14,0.14,0.99,-1.97,-5.96)}87.64%{transform:matrix(0.99,-0.14,0.14,0.99,-1.84,-5.81)}88.764%{transform:matrix(0.99,-0.14,0.14,0.99,-1.73,-5.67)}89.888%{transform:matrix(0.99,-0.14,0.14,0.99,-1.65,-5.53)}91.011%{transform:matrix(0.99,-0.14,0.13,0.99,-1.59,-5.41)}92.135%{transform:matrix(0.99,-0.14,0.13,0.99,-1.56,-5.29)}93.258%{transform:matrix(0.99,-0.14,0.13,0.99,-1.55,-5.19)}94.382%{transform:matrix(0.99,-0.14,0.13,0.99,-1.57,-5.11)}95.506%{transform:matrix(0.99,-0.14,0.13,0.99,-1.61,-5.03)}96.629%{transform:matrix(0.99,-0.14,0.14,0.99,-1.66,-4.98)}97.753%{transform:matrix(0.99,-0.14,0.14,0.99,-1.74,-4.94)}98.876%{transform:matrix(0.99,-0.14,0.14,0.99,-1.83,-4.92)}100%{transform:matrix(0.99,-0.14,0.14,0.99,-1.94,-4.91)}}@keyframes oeil1{0%{transform:matrix(0.85,-0.06,0.14,0.98,51.37,-16.12)}1.124%{transform:matrix(0.85,-0.06,0.14,0.98,51.35,-16.07)}2.247%{transform:matrix(0.85,-0.06,0.14,0.98,51.33,-16.03)}3.371%{transform:matrix(0.85,-0.06,0.14,0.98,51.3,-15.99)}4.494%{transform:matrix(0.85,-0.06,0.14,0.98,51.26,-15.96)}5.618%{transform:matrix(0.85,-0.06,0.14,0.98,51.21,-15.93)}6.742%{transform:matrix(0.85,-0.06,0.14,0.98,51.16,-15.9)}7.865%{transform:matrix(0.85,-0.06,0.14,0.98,51.1,-15.88)}8.989%{transform:matrix(0.85,-0.06,0.14,0.98,51.04,-15.87)}10.112%{transform:matrix(0.85,-0.06,0.14,0.98,50.96,-15.86)}11.236%{transform:matrix(0.85,-0.06,0.14,0.98,50.89,-15.86)}12.36%{transform:matrix(0.85,-0.06,0.14,0.98,50.8,-15.86)}13.483%{transform:matrix(0.85,-0.06,0.14,0.98,50.72,-15.87)}14.607%{transform:matrix(0.85,-0.06,0.14,0.98,50.63,-15.88)}15.73%{transform:matrix(0.85,-0.06,0.14,0.98,50.55,-15.89)}16.854%{transform:matrix(0.85,-0.06,0.14,0.98,50.46,-15.9)}17.978%{transform:matrix(0.85,-0.06,0.14,0.98,50.37,-15.92)}19.101%{transform:matrix(0.85,-0.07,0.14,0.98,50.29,-15.93)}20.225%{transform:matrix(0.85,-0.07,0.14,0.98,50.21,-15.95)}21.348%{transform:matrix(0.85,-0.07,0.14,0.98,50.13,-15.96)}22.472%{transform:matrix(0.86,-0.07,0.14,0.98,50.06,-15.97)}23.596%{transform:matrix(0.86,-0.07,0.14,0.98,49.99,-15.98)}24.719%{transform:matrix(0.86,-0.07,0.14,0.98,49.93,-15.99)}25.843%{transform:matrix(0.86,-0.07,0.14,0.98,49.88,-15.99)}26.966%{transform:matrix(0.86,-0.07,0.14,0.98,49.82,-15.99)}28.09%{transform:matrix(0.86,-0.07,0.14,0.98,49.77,-15.98)}29.213%{transform:matrix(0.86,-0.07,0.14,0.98,49.73,-15.97)}30.337%{transform:matrix(0.86,-0.07,0.14,0.98,49.69,-15.95)}31.461%{transform:matrix(0.86,-0.07,0.14,0.98,49.64,-15.93)}32.584%{transform:matrix(0.86,-0.07,0.14,0.98,49.6,-15.9)}33.708%{transform:matrix(0.86,-0.07,0.14,0.98,49.56,-15.87)}34.831%{transform:matrix(0.86,-0.07,0.14,0.98,49.52,-15.83)}35.955%{transform:matrix(0.86,-0.07,0.14,0.98,49.47,-15.79)}37.079%{transform:matrix(0.86,-0.07,0.14,0.98,49.42,-15.74)}38.202%{transform:matrix(0.86,-0.07,0.14,0.98,49.36,-15.69)}39.326%{transform:matrix(0.86,-0.07,0.14,0.98,49.29,-15.64)}40.449%{transform:matrix(0.86,-0.07,0.14,0.98,49.22,-15.58)}41.573%{transform:matrix(0.86,-0.07,0.14,0.99,49.14,-15.53)}42.697%{transform:matrix(0.86,-0.07,0.14,0.99,49.05,-15.47)}43.82%{transform:matrix(0.86,-0.07,0.14,0.99,48.96,-15.41)}44.944%{transform:matrix(0.86,-0.07,0.14,0.99,48.86,-15.35)}46.067%{transform:matrix(0.86,-0.07,0.14,0.99,48.75,-15.29)}47.191%{transform:matrix(0.86,-0.07,0.14,0.99,48.63,-15.23)}48.315%{transform:matrix(0.86,-0.04,0.14,0.6,48.51,-15.18)}49.438%{transform:matrix(0.86,-0.02,0.14,0.22,48.39,-15.12)}50.562%{transform:matrix(0.87,-0.02,0.14,0.24,48.27,-15.07)}51.685%{transform:matrix(0.87,-0.04,0.14,0.55,48.14,-15.01)}52.809%{transform:matrix(0.87,-0.06,0.14,0.86,48.02,-14.97)}53.933%{transform:matrix(0.87,-0.07,0.14,0.99,47.91,-14.92)}55.056%{transform:matrix(0.87,-0.07,0.14,0.99,47.8,-14.87)}56.18%{transform:matrix(0.87,-0.07,0.14,0.99,47.71,-14.83)}57.303%{transform:matrix(0.87,-0.07,0.14,0.99,47.62,-14.78)}58.427%{transform:matrix(0.87,-0.07,0.14,0.99,47.55,-14.74)}59.551%{transform:matrix(0.87,-0.07,0.14,0.99,47.5,-14.69)}60.674%{transform:matrix(0.87,-0.07,0.14,0.99,47.47,-14.65)}61.798%{transform:matrix(0.87,-0.07,0.14,0.99,47.46,-14.6)}62.921%{transform:matrix(0.87,-0.07,0.14,0.99,47.46,-14.55)}64.045%{transform:matrix(0.87,-0.07,0.14,0.99,47.49,-14.49)}65.169%{transform:matrix(0.87,-0.07,0.14,0.99,47.55,-14.44)}66.292%{transform:matrix(0.87,-0.07,0.14,0.99,47.62,-14.37)}67.416%{transform:matrix(0.87,-0.07,0.14,0.99,47.72,-14.31)}68.539%{transform:matrix(0.87,-0.07,0.14,0.99,47.84,-14.23)}69.663%{transform:matrix(0.87,-0.08,0.14,0.99,47.98,-14.15)}70.787%{transform:matrix(0.87,-0.08,0.14,0.99,48.14,-14.06)}71.91%{transform:matrix(0.86,-0.08,0.14,0.99,48.32,-13.97)}73.034%{transform:matrix(0.86,-0.08,0.14,0.99,48.5,-13.87)}74.157%{transform:matrix(0.86,-0.08,0.14,0.99,48.71,-13.76)}75.281%{transform:matrix(0.86,-0.08,0.14,0.99,48.91,-13.64)}76.404%{transform:matrix(0.86,-0.08,0.14,0.99,49.13,-13.52)}77.528%{transform:matrix(0.86,-0.08,0.14,0.99,49.35,-13.39)}78.652%{transform:matrix(0.86,-0.08,0.14,0.99,49.56,-13.26)}79.775%{transform:matrix(0.86,-0.08,0.14,0.99,49.78,-13.12)}80.899%{transform:matrix(0.86,-0.08,0.14,0.99,49.98,-12.97)}82.022%{transform:matrix(0.85,-0.08,0.14,0.99,50.18,-12.83)}83.146%{transform:matrix(0.85,-0.08,0.14,0.99,50.36,-12.68)}84.27%{transform:matrix(0.85,-0.08,0.14,0.99,50.53,-12.54)}85.393%{transform:matrix(0.85,-0.08,0.14,0.99,50.68,-12.39)}86.517%{transform:matrix(0.85,-0.08,0.14,0.99,50.82,-12.25)}87.64%{transform:matrix(0.85,-0.08,0.14,0.99,50.93,-12.12)}88.764%{transform:matrix(0.85,-0.08,0.14,0.99,51.02,-11.99)}89.888%{transform:matrix(0.85,-0.09,0.14,0.99,51.09,-11.87)}91.011%{transform:matrix(0.85,-0.09,0.13,0.99,51.14,-11.76)}92.135%{transform:matrix(0.85,-0.09,0.13,0.99,51.17,-11.66)}93.258%{transform:matrix(0.85,-0.09,0.13,0.99,51.17,-11.57)}94.382%{transform:matrix(0.85,-0.09,0.13,0.99,51.16,-11.5)}95.506%{transform:matrix(0.85,-0.09,0.13,0.99,51.12,-11.45)}96.629%{transform:matrix(0.85,-0.09,0.14,0.99,51.07,-11.41)}97.753%{transform:matrix(0.85,-0.09,0.14,0.99,51,-11.38)}98.876%{transform:matrix(0.85,-0.09,0.14,0.99,50.92,-11.38)}100%{transform:matrix(0.85,-0.09,0.14,0.99,50.83,-11.39)}}</style></svg>