<svg width="250" height="250" viewBox="-125 -125 250 250" role="img" aria-label="Animated bloub avatar" xmlns="http://www.w3.org/2000/svg"><defs><mask id="bot-mask-ped1ny" maskUnits="userSpaceOnUse" x="-158" y="-158" width="316" height="316"><path d="M100.19 0.33C100.19 3.6 100.03 6.88 99.71 10.13C99.39 13.38 98.9 16.63 98.27 19.84C97.63 23.04 96.83 26.23 95.88 29.36C94.93 32.48 93.83 35.58 92.58 38.6C91.33 41.62 89.92 44.59 88.38 47.47C86.84 50.35 85.15 53.17 83.33 55.89C81.52 58.6 79.56 61.24 77.49 63.77C75.42 66.29 73.21 68.73 70.9 71.04C68.59 73.35 66.15 75.56 63.63 77.63C61.1 79.7 58.46 81.66 55.74 83.48C53.03 85.29 50.21 86.98 47.33 88.52C44.45 90.06 41.47 91.47 38.46 92.72C35.44 93.97 32.34 95.07 29.22 96.02C26.09 96.97 22.9 97.77 19.7 98.41C16.49 99.04 13.24 99.53 9.99 99.85C6.74 100.17 3.45 100.33 0.19 100.33C-3.08 100.33 -6.36 100.17 -9.61 99.85C-12.87 99.53 -16.12 99.04 -19.32 98.41C-22.53 97.77 -25.71 96.97 -28.84 96.02C-31.97 95.07 -35.06 93.97 -38.08 92.72C-41.1 91.47 -44.07 90.06 -46.95 88.52C-49.83 86.98 -52.65 85.29 -55.37 83.48C-58.09 81.66 -60.73 79.7 -63.25 77.63C-65.78 75.56 -68.21 73.35 -70.52 71.04C-72.83 68.73 -75.04 66.29 -77.11 63.77C-79.19 61.24 -81.14 58.6 -82.96 55.89C-84.77 53.17 -86.46 50.35 -88 47.47C-89.54 44.59 -90.95 41.62 -92.2 38.6C-93.45 35.58 -94.56 32.48 -95.51 29.36C-96.46 26.23 -97.25 23.04 -97.89 19.84C-98.53 16.63 -99.01 13.38 -99.33 10.13C-99.65 6.88 -99.81 3.6 -99.81 0.33C-99.81 -2.94 -99.65 -6.22 -99.33 -9.47C-99.01 -12.72 -98.53 -15.98 -97.89 -19.18C-97.25 -22.38 -96.46 -25.57 -95.51 -28.7C-94.56 -31.83 -93.45 -34.92 -92.2 -37.94C-90.95 -40.96 -89.54 -43.93 -88 -46.81C-86.46 -49.69 -84.77 -52.51 -82.96 -55.23C-81.14 -57.94 -79.19 -60.58 -77.11 -63.11C-75.04 -65.64 -72.83 -68.07 -70.52 -70.38C-68.21 -72.69 -65.78 -74.9 -63.25 -76.97C-60.73 -79.04 -58.09 -81 -55.37 -82.82C-52.65 -84.63 -49.83 -86.32 -46.95 -87.86C-44.07 -89.4 -41.1 -90.81 -38.08 -92.06C-35.06 -93.31 -31.97 -94.42 -28.84 -95.37C-25.71 -96.31 -22.53 -97.11 -19.32 -97.75C-16.12 -98.39 -12.87 -98.87 -9.61 -99.19C-6.36 -99.51 -3.08 -99.67 0.19 -99.67C3.45 -99.67 6.74 -99.51 9.99 -99.19C13.24 -98.87 16.49 -98.39 19.7 -97.75C22.9 -97.11 26.09 -96.31 29.22 -95.37C32.34 -94.42 35.44 -93.31 38.46 -92.06C41.47 -90.81 44.45 -89.4 47.33 -87.86C50.21 -86.32 53.03 -84.63 55.74 -82.82C58.46 -81 61.1 -79.04 63.63 -76.97C66.15 -74.9 68.59 -72.69 70.9 -70.38C73.21 -68.07 75.42 -65.64 77.49 -63.11C79.56 -60.58 81.52 -57.94 83.33 -55.23C85.15 -52.51 86.84 -49.69 88.38 -46.81C89.92 -43.93 91.33 -40.96 92.58 -37.94C93.83 -34.92 94.93 -31.83 95.88 -28.7C96.83 -25.57 97.63 -22.38 98.27 -19.18C98.9 -15.98 99.39 -12.72 99.71 -9.47C100.03 -6.22 100.19 -2.94 100.19 0.33Z" fill="#fff"/><path d="M-8.5 -6.5A8.5 8.5 0 0 1 0 -15L0 -15A8.5 8.5 0 0 1 8.5 -6.5L8.5 6.5A8.5 8.5 0 0 1 0 15L0 15A8.5 8.5 0 0 1 -8.5 6.5Z" class="oeil0" opacity="1" fill="#000"/><path d="M-8.5 -6.5A8.5 8.5 0 0 1 0 -15L0 -15A8.5 8.5 0 0 1 8.5 -6.5L8.5 6.5A8.5 8.5 0 0 1 0 15L0 15A8.5 8.5 0 0 1 -8.5 6.5Z" class="oeil1" opacity="1" fill="#000"/></mask></defs><g fill="none" stroke-linecap="round"></g><g opacity="1"><path d="M100.19 0.33C100.19 3.6 100.03 6.88 99.71 10.13C99.39 13.38 98.9 16.63 98.27 19.84C97.63 23.04 96.83 26.23 95.88 29.36C94.93 32.48 93.83 35.58 92.58 38.6C91.33 41.62 89.92 44.59 88.38 47.47C86.84 50.35 85.15 53.17 83.33 55.89C81.52 58.6 79.56 61.24 77.49 63.77C75.42 66.29 73.21 68.73 70.9 71.04C68.59 73.35 66.15 75.56 63.63 77.63C61.1 79.7 58.46 81.66 55.74 83.48C53.03 85.29 50.21 86.98 47.33 88.52C44.45 90.06 41.47 91.47 38.46 92.72C35.44 93.97 32.34 95.07 29.22 96.02C26.09 96.97 22.9 97.77 19.7 98.41C16.49 99.04 13.24 99.53 9.99 99.85C6.74 100.17 3.45 100.33 0.19 100.33C-3.08 100.33 -6.36 100.17 -9.61 99.85C-12.87 99.53 -16.12 99.04 -19.32 98.41C-22.53 97.77 -25.71 96.97 -28.84 96.02C-31.97 95.07 -35.06 93.97 -38.08 92.72C-41.1 91.47 -44.07 90.06 -46.95 88.52C-49.83 86.98 -52.65 85.29 -55.37 83.48C-58.09 81.66 -60.73 79.7 -63.25 77.63C-65.78 75.56 -68.21 73.35 -70.52 71.04C-72.83 68.73 -75.04 66.29 -77.11 63.77C-79.19 61.24 -81.14 58.6 -82.96 55.89C-84.77 53.17 -86.46 50.35 -88 47.47C-89.54 44.59 -90.95 41.62 -92.2 38.6C-93.45 35.58 -94.56 32.48 -95.51 29.36C-96.46 26.23 -97.25 23.04 -97.89 19.84C-98.53 16.63 -99.01 13.38 -99.33 10.13C-99.65 6.88 -99.81 3.6 -99.81 0.33C-99.81 -2.94 -99.65 -6.22 -99.33 -9.47C-99.01 -12.72 -98.53 -15.98 -97.89 -19.18C-97.25 -22.38 -96.46 -25.57 -95.51 -28.7C-94.56 -31.83 -93.45 -34.92 -92.2 -37.94C-90.95 -40.96 -89.54 -43.93 -88 -46.81C-86.46 -49.69 -84.77 -52.51 -82.96 -55.23C-81.14 -57.94 -79.19 -60.58 -77.11 -63.11C-75.04 -65.64 -72.83 -68.07 -70.52 -70.38C-68.21 -72.69 -65.78 -74.9 -63.25 -76.97C-60.73 -79.04 -58.09 -81 -55.37 -82.82C-52.65 -84.63 -49.83 -86.32 -46.95 -87.86C-44.07 -89.4 -41.1 -90.81 -38.08 -92.06C-35.06 -93.31 -31.97 -94.42 -28.84 -95.37C-25.71 -96.31 -22.53 -97.11 -19.32 -97.75C-16.12 -98.39 -12.87 -98.87 -9.61 -99.19C-6.36 -99.51 -3.08 -99.67 0.19 -99.67C3.45 -99.67 6.74 -99.51 9.99 -99.19C13.24 -98.87 16.49 -98.39 19.7 -97.75C22.9 -97.11 26.09 -96.31 29.22 -95.37C32.34 -94.42 35.44 -93.31 38.46 -92.06C41.47 -90.81 44.45 -89.4 47.33 -87.86C50.21 -86.32 53.03 -84.63 55.74 -82.82C58.46 -81 61.1 -79.04 63.63 -76.97C66.15 -74.9 68.59 -72.69 70.9 -70.38C73.21 -68.07 75.42 -65.64 77.49 -63.11C79.56 -60.58 81.52 -57.94 83.33 -55.23C85.15 -52.51 86.84 -49.69 88.38 -46.81C89.92 -43.93 91.33 -40.96 92.58 -37.94C93.83 -34.92 94.93 -31.83 95.88 -28.7C96.83 -25.57 97.63 -22.38 98.27 -19.18C98.9 -15.98 99.39 -12.72 99.71 -9.47C100.03 -6.22 100.19 -2.94 100.19 0.33Z" fill="#f9f9f9"/><g mask="url(#bot-mask-ped1ny)"><rect x="-158" y="-158" width="316" height="316" fill="#e152b0"/></g></g><g></g><g fill="none" stroke-linecap="round"></g><style>.oeil0,.oeil1{transform-box:view-box;transform-origin:0 0;animation-duration:2.967s;animation-iteration-count:infinite;animation-timing-function:linear;animation-direction:alternate}.oeil0{animation-name:oeil0}.oeil1{animation-name:oeil1}@keyframes oeil0{0%{transform:matrix(0.85,-0.07,0.17,0.97,-48.72,23.18)}1.124%{transform:matrix(0.85,-0.07,0.17,0.97,-48.74,23.24)}2.247%{transform:matrix(0.85,-0.07,0.17,0.97,-48.76,23.29)}3.371%{transform:matrix(0.85,-0.07,0.17,0.97,-48.78,23.34)}4.494%{transform:matrix(0.85,-0.07,0.17,0.97,-48.82,23.39)}5.618%{transform:matrix(0.85,-0.07,0.18,0.97,-48.86,23.43)}6.742%{transform:matrix(0.85,-0.07,0.18,0.97,-48.91,23.46)}7.865%{transform:matrix(0.85,-0.07,0.18,0.97,-48.97,23.49)}8.989%{transform:matrix(0.85,-0.07,0.18,0.97,-49.03,23.52)}10.112%{transform:matrix(0.85,-0.07,0.18,0.97,-49.1,23.54)}11.236%{transform:matrix(0.85,-0.07,0.18,0.97,-49.17,23.55)}12.36%{transform:matrix(0.85,-0.07,0.18,0.97,-49.25,23.56)}13.483%{transform:matrix(0.85,-0.07,0.18,0.97,-49.33,23.56)}14.607%{transform:matrix(0.85,-0.07,0.18,0.97,-49.42,23.56)}15.73%{transform:matrix(0.85,-0.07,0.18,0.97,-49.5,23.56)}16.854%{transform:matrix(0.85,-0.07,0.18,0.97,-49.59,23.55)}17.978%{transform:matrix(0.85,-0.07,0.18,0.97,-49.67,23.55)}19.101%{transform:matrix(0.85,-0.07,0.18,0.97,-49.75,23.54)}20.225%{transform:matrix(0.85,-0.07,0.18,0.97,-49.83,23.54)}21.348%{transform:matrix(0.85,-0.07,0.18,0.97,-49.9,23.53)}22.472%{transform:matrix(0.85,-0.07,0.18,0.97,-49.97,23.53)}23.596%{transform:matrix(0.85,-0.07,0.18,0.97,-50.04,23.52)}24.719%{transform:matrix(0.85,-0.07,0.18,0.97,-50.1,23.53)}25.843%{transform:matrix(0.85,-0.07,0.18,0.97,-50.15,23.53)}26.966%{transform:matrix(0.84,-0.07,0.18,0.97,-50.2,23.54)}28.09%{transform:matrix(0.84,-0.07,0.18,0.97,-50.25,23.55)}29.213%{transform:matrix(0.84,-0.07,0.18,0.97,-50.29,23.57)}30.337%{transform:matrix(0.84,-0.07,0.18,0.97,-50.33,23.6)}31.461%{transform:matrix(0.84,-0.07,0.18,0.97,-50.37,23.63)}32.584%{transform:matrix(0.84,-0.07,0.18,0.97,-50.41,23.66)}33.708%{transform:matrix(0.84,-0.07,0.18,0.97,-50.45,23.7)}34.831%{transform:matrix(0.84,-0.07,0.18,0.97,-50.49,23.74)}35.955%{transform:matrix(0.84,-0.07,0.18,0.97,-50.53,23.79)}37.079%{transform:matrix(0.84,-0.07,0.18,0.97,-50.58,23.84)}38.202%{transform:matrix(0.84,-0.07,0.18,0.97,-50.64,23.89)}39.326%{transform:matrix(0.84,-0.07,0.18,0.97,-50.7,23.95)}40.449%{transform:matrix(0.84,-0.07,0.18,0.97,-50.76,24.01)}41.573%{transform:matrix(0.84,-0.07,0.19,0.97,-50.84,24.07)}42.697%{transform:matrix(0.84,-0.07,0.19,0.97,-50.92,24.13)}43.82%{transform:matrix(0.84,-0.07,0.19,0.97,-51.01,24.2)}44.944%{transform:matrix(0.84,-0.07,0.19,0.97,-51.1,24.26)}46.067%{transform:matrix(0.84,-0.07,0.19,0.97,-51.21,24.32)}47.191%{transform:matrix(0.84,-0.07,0.19,0.97,-51.31,24.38)}48.315%{transform:matrix(0.84,-0.04,0.19,0.59,-51.42,24.44)}49.438%{transform:matrix(0.84,-0.02,0.19,0.22,-51.54,24.5)}50.562%{transform:matrix(0.84,-0.02,0.19,0.23,-51.65,24.55)}51.685%{transform:matrix(0.83,-0.04,0.19,0.54,-51.77,24.61)}52.809%{transform:matrix(0.83,-0.06,0.19,0.84,-51.88,24.66)}53.933%{transform:matrix(0.83,-0.07,0.19,0.97,-51.98,24.71)}55.056%{transform:matrix(0.83,-0.07,0.19,0.97,-52.08,24.76)}56.18%{transform:matrix(0.83,-0.07,0.19,0.97,-52.17,24.81)}57.303%{transform:matrix(0.83,-0.07,0.19,0.97,-52.24,24.86)}58.427%{transform:matrix(0.83,-0.07,0.19,0.97,-52.31,24.9)}59.551%{transform:matrix(0.83,-0.07,0.19,0.97,-52.35,24.95)}60.674%{transform:matrix(0.83,-0.07,0.19,0.97,-52.38,25)}61.798%{transform:matrix(0.83,-0.07,0.19,0.97,-52.39,25.05)}62.921%{transform:matrix(0.83,-0.07,0.19,0.97,-52.38,25.1)}64.045%{transform:matrix(0.83,-0.07,0.19,0.97,-52.35,25.16)}65.169%{transform:matrix(0.83,-0.07,0.19,0.97,-52.29,25.22)}66.292%{transform:matrix(0.83,-0.07,0.19,0.97,-52.22,25.29)}67.416%{transform:matrix(0.83,-0.07,0.19,0.97,-52.12,25.36)}68.539%{transform:matrix(0.83,-0.07,0.19,0.97,-52,25.44)}69.663%{transform:matrix(0.83,-0.07,0.19,0.96,-51.86,25.52)}70.787%{transform:matrix(0.83,-0.07,0.19,0.96,-51.71,25.61)}71.91%{transform:matrix(0.83,-0.07,0.19,0.96,-51.54,25.71)}73.034%{transform:matrix(0.84,-0.07,0.19,0.96,-51.35,25.82)}74.157%{transform:matrix(0.84,-0.07,0.19,0.96,-51.15,25.93)}75.281%{transform:matrix(0.84,-0.07,0.19,0.96,-50.95,26.05)}76.404%{transform:matrix(0.84,-0.07,0.19,0.96,-50.73,26.18)}77.528%{transform:matrix(0.84,-0.07,0.19,0.96,-50.52,26.31)}78.652%{transform:matrix(0.84,-0.07,0.19,0.96,-50.3,26.45)}79.775%{transform:matrix(0.84,-0.06,0.19,0.96,-50.09,26.6)}80.899%{transform:matrix(0.84,-0.06,0.19,0.96,-49.88,26.74)}82.022%{transform:matrix(0.85,-0.06,0.2,0.96,-49.69,26.89)}83.146%{transform:matrix(0.85,-0.06,0.2,0.96,-49.5,27.05)}84.27%{transform:matrix(0.85,-0.06,0.2,0.96,-49.33,27.2)}85.393%{transform:matrix(0.85,-0.06,0.2,0.96,-49.17,27.35)}86.517%{transform:matrix(0.85,-0.06,0.2,0.96,-49.03,27.5)}87.64%{transform:matrix(0.85,-0.06,0.2,0.96,-48.91,27.64)}88.764%{transform:matrix(0.85,-0.06,0.2,0.96,-48.82,27.78)}89.888%{transform:matrix(0.85,-0.06,0.2,0.96,-48.74,27.9)}91.011%{transform:matrix(0.85,-0.06,0.2,0.96,-48.69,28.02)}92.135%{transform:matrix(0.85,-0.06,0.2,0.96,-48.65,28.13)}93.258%{transform:matrix(0.85,-0.06,0.2,0.96,-48.64,28.23)}94.382%{transform:matrix(0.85,-0.06,0.2,0.96,-48.65,28.31)}95.506%{transform:matrix(0.85,-0.06,0.2,0.96,-48.68,28.38)}96.629%{transform:matrix(0.85,-0.06,0.2,0.96,-48.72,28.43)}97.753%{transform:matrix(0.85,-0.06,0.2,0.96,-48.78,28.47)}98.876%{transform:matrix(0.85,-0.06,0.2,0.96,-48.86,28.49)}100%{transform:matrix(0.85,-0.06,0.2,0.96,-48.95,28.49)}}@keyframes oeil1{0%{transform:matrix(0.98,-0.17,0.17,0.97,-2.86,17.4)}1.124%{transform:matrix(0.98,-0.17,0.17,0.97,-2.88,17.45)}2.247%{transform:matrix(0.98,-0.17,0.17,0.97,-2.91,17.49)}3.371%{transform:matrix(0.98,-0.17,0.17,0.97,-2.95,17.53)}4.494%{transform:matrix(0.98,-0.17,0.17,0.97,-2.99,17.57)}5.618%{transform:matrix(0.98,-0.17,0.18,0.97,-3.04,17.6)}6.742%{transform:matrix(0.98,-0.17,0.18,0.97,-3.1,17.62)}7.865%{transform:matrix(0.98,-0.17,0.18,0.97,-3.17,17.64)}8.989%{transform:matrix(0.98,-0.17,0.18,0.97,-3.25,17.66)}10.112%{transform:matrix(0.98,-0.17,0.18,0.97,-3.33,17.67)}11.236%{transform:matrix(0.98,-0.17,0.18,0.97,-3.42,17.67)}12.36%{transform:matrix(0.98,-0.17,0.18,0.97,-3.52,17.67)}13.483%{transform:matrix(0.98,-0.17,0.18,0.97,-3.62,17.66)}14.607%{transform:matrix(0.98,-0.17,0.18,0.97,-3.72,17.66)}15.73%{transform:matrix(0.98,-0.17,0.18,0.97,-3.82,17.64)}16.854%{transform:matrix(0.98,-0.17,0.18,0.97,-3.92,17.63)}17.978%{transform:matrix(0.98,-0.17,0.18,0.97,-4.02,17.62)}19.101%{transform:matrix(0.98,-0.17,0.18,0.97,-4.11,17.6)}20.225%{transform:matrix(0.98,-0.17,0.18,0.97,-4.21,17.59)}21.348%{transform:matrix(0.98,-0.17,0.18,0.97,-4.29,17.57)}22.472%{transform:matrix(0.98,-0.17,0.18,0.97,-4.38,17.56)}23.596%{transform:matrix(0.98,-0.17,0.18,0.97,-4.45,17.55)}24.719%{transform:matrix(0.98,-0.17,0.18,0.97,-4.52,17.55)}25.843%{transform:matrix(0.98,-0.17,0.18,0.97,-4.59,17.55)}26.966%{transform:matrix(0.98,-0.17,0.18,0.97,-4.65,17.55)}28.09%{transform:matrix(0.98,-0.17,0.18,0.97,-4.7,17.56)}29.213%{transform:matrix(0.98,-0.17,0.18,0.97,-4.75,17.57)}30.337%{transform:matrix(0.98,-0.17,0.18,0.97,-4.8,17.59)}31.461%{transform:matrix(0.98,-0.17,0.18,0.97,-4.85,17.61)}32.584%{transform:matrix(0.98,-0.17,0.18,0.97,-4.9,17.64)}33.708%{transform:matrix(0.98,-0.17,0.18,0.97,-4.94,17.67)}34.831%{transform:matrix(0.98,-0.17,0.18,0.97,-4.99,17.71)}35.955%{transform:matrix(0.98,-0.17,0.18,0.97,-5.05,17.75)}37.079%{transform:matrix(0.98,-0.17,0.18,0.97,-5.11,17.8)}38.202%{transform:matrix(0.98,-0.17,0.18,0.97,-5.17,17.85)}39.326%{transform:matrix(0.98,-0.17,0.18,0.97,-5.25,17.91)}40.449%{transform:matrix(0.98,-0.17,0.18,0.97,-5.33,17.96)}41.573%{transform:matrix(0.98,-0.17,0.19,0.97,-5.42,18.02)}42.697%{transform:matrix(0.98,-0.17,0.19,0.97,-5.52,18.08)}43.82%{transform:matrix(0.98,-0.17,0.19,0.97,-5.62,18.14)}44.944%{transform:matrix(0.98,-0.17,0.19,0.97,-5.74,18.2)}46.067%{transform:matrix(0.98,-0.17,0.19,0.97,-5.86,18.26)}47.191%{transform:matrix(0.98,-0.17,0.19,0.97,-5.99,18.32)}48.315%{transform:matrix(0.98,-0.11,0.19,0.59,-6.13,18.38)}49.438%{transform:matrix(0.98,-0.04,0.19,0.22,-6.27,18.43)}50.562%{transform:matrix(0.98,-0.04,0.19,0.23,-6.4,18.49)}51.685%{transform:matrix(0.98,-0.1,0.19,0.54,-6.54,18.54)}52.809%{transform:matrix(0.98,-0.15,0.19,0.84,-6.68,18.59)}53.933%{transform:matrix(0.98,-0.18,0.19,0.97,-6.8,18.64)}55.056%{transform:matrix(0.98,-0.18,0.19,0.97,-6.92,18.68)}56.18%{transform:matrix(0.98,-0.18,0.19,0.97,-7.03,18.73)}57.303%{transform:matrix(0.98,-0.18,0.19,0.97,-7.12,18.77)}58.427%{transform:matrix(0.98,-0.18,0.19,0.97,-7.2,18.82)}59.551%{transform:matrix(0.98,-0.18,0.19,0.97,-7.26,18.86)}60.674%{transform:matrix(0.98,-0.18,0.19,0.97,-7.29,18.91)}61.798%{transform:matrix(0.98,-0.18,0.19,0.97,-7.31,18.96)}62.921%{transform:matrix(0.98,-0.18,0.19,0.97,-7.3,19.01)}64.045%{transform:matrix(0.98,-0.18,0.19,0.97,-7.26,19.06)}65.169%{transform:matrix(0.98,-0.18,0.19,0.97,-7.2,19.12)}66.292%{transform:matrix(0.98,-0.18,0.19,0.97,-7.11,19.18)}67.416%{transform:matrix(0.98,-0.18,0.19,0.97,-7,19.25)}68.539%{transform:matrix(0.98,-0.18,0.19,0.97,-6.86,19.33)}69.663%{transform:matrix(0.98,-0.18,0.19,0.96,-6.7,19.41)}70.787%{transform:matrix(0.98,-0.18,0.19,0.96,-6.52,19.5)}71.91%{transform:matrix(0.98,-0.18,0.19,0.96,-6.32,19.59)}73.034%{transform:matrix(0.98,-0.18,0.19,0.96,-6.1,19.69)}74.157%{transform:matrix(0.98,-0.18,0.19,0.96,-5.87,19.8)}75.281%{transform:matrix(0.98,-0.18,0.19,0.96,-5.63,19.92)}76.404%{transform:matrix(0.98,-0.18,0.19,0.96,-5.38,20.04)}77.528%{transform:matrix(0.98,-0.18,0.19,0.96,-5.13,20.17)}78.652%{transform:matrix(0.98,-0.18,0.19,0.96,-4.88,20.31)}79.775%{transform:matrix(0.98,-0.18,0.19,0.96,-4.63,20.45)}80.899%{transform:matrix(0.98,-0.18,0.19,0.96,-4.39,20.59)}82.022%{transform:matrix(0.98,-0.18,0.2,0.96,-4.16,20.73)}83.146%{transform:matrix(0.98,-0.18,0.2,0.96,-3.95,20.88)}84.27%{transform:matrix(0.98,-0.18,0.2,0.96,-3.75,21.03)}85.393%{transform:matrix(0.98,-0.18,0.2,0.96,-3.57,21.17)}86.517%{transform:matrix(0.98,-0.18,0.2,0.96,-3.42,21.31)}87.64%{transform:matrix(0.98,-0.19,0.2,0.96,-3.28,21.44)}88.764%{transform:matrix(0.98,-0.19,0.2,0.96,-3.17,21.57)}89.888%{transform:matrix(0.98,-0.19,0.2,0.96,-3.09,21.69)}91.011%{transform:matrix(0.98,-0.19,0.2,0.96,-3.03,21.8)}92.135%{transform:matrix(0.98,-0.19,0.2,0.96,-3,21.9)}93.258%{transform:matrix(0.98,-0.19,0.2,0.96,-2.99,21.99)}94.382%{transform:matrix(0.98,-0.19,0.2,0.96,-3,22.06)}95.506%{transform:matrix(0.98,-0.19,0.2,0.96,-3.04,22.12)}96.629%{transform:matrix(0.98,-0.19,0.2,0.96,-3.1,22.16)}97.753%{transform:matrix(0.98,-0.19,0.2,0.96,-3.17,22.18)}98.876%{transform:matrix(0.98,-0.19,0.2,0.96,-3.26,22.19)}100%{transform:matrix(0.98,-0.19,0.2,0.96,-3.37,22.17)}}</style></svg>